<?xml version="1.0" standalone="no"?>
<!DOCTYPE svg PUBLIC "-//W3C//DTD SVG 20010904//EN"
 "http://www.w3.org/TR/2001/REC-SVG-20010904/DTD/svg10.dtd">
<svg version="1.0" xmlns="http://www.w3.org/2000/svg"
 width="1280.000000pt" height="358.000000pt" viewBox="0 0 1280.000000 358.000000"
 preserveAspectRatio="xMidYMid meet">

<g transform="translate(0.000000,358.000000) scale(0.100000,-0.100000)"
fill="#000000" stroke="none">
<path d="M10943 2362 l-233 -66 0 -118 0 -118 -85 0 -85 0 0 -165 0 -164 83
-3 82 -3 6 -260 c6 -294 12 -321 80 -399 70 -79 206 -125 375 -126 90 0 227
24 289 50 l47 20 -7 133 c-4 72 -10 136 -14 140 -4 4 -20 3 -35 -3 -38 -14
-146 -12 -176 3 -52 26 -60 64 -58 262 l3 180 138 3 137 3 0 164 0 165 -140 0
-140 0 0 185 c0 170 -1 185 -17 184 -10 0 -123 -30 -250 -67z"/>
<path d="M4190 1691 l0 -731 245 0 245 0 2 243 3 242 74 0 73 0 128 -240 128
-240 277 -3 c221 -2 275 0 269 10 -23 38 -291 459 -316 495 -15 23 -28 45 -28
50 1 4 23 19 51 32 148 69 228 233 217 442 -5 74 -11 101 -38 155 -42 85 -112
154 -202 199 -131 64 -161 67 -670 72 l-458 5 0 -731z m800 344 c39 -20 60
-63 60 -122 0 -65 -28 -109 -77 -122 -21 -6 -95 -11 -165 -11 l-128 0 0 135 0
135 140 0 c107 0 148 -4 170 -15z"/>
<path d="M6092 2060 c-213 -56 -355 -200 -399 -403 -18 -86 -12 -267 10 -338
59 -183 195 -306 393 -356 96 -24 315 -24 404 0 107 28 222 90 273 147 50 55
88 137 70 148 -6 4 -95 29 -198 56 l-186 49 -30 -36 c-35 -43 -86 -62 -146
-53 -62 8 -82 22 -104 69 -37 83 -63 77 330 77 309 0 350 2 355 16 11 30 6
199 -9 262 -44 184 -194 325 -392 367 -98 21 -281 18 -371 -5z m266 -333 c22
-24 42 -75 42 -109 0 -16 -12 -18 -121 -18 l-121 0 7 38 c15 80 49 110 126
111 35 1 50 -4 67 -22z"/>
<path d="M7390 2065 c-104 -23 -221 -88 -285 -157 -103 -111 -139 -214 -139
-393 0 -190 38 -297 144 -404 101 -103 244 -157 440 -168 253 -13 483 78 562
223 14 27 28 64 30 83 l3 34 -220 68 c-227 70 -234 71 -235 23 0 -12 -10 -36
-23 -55 -18 -27 -30 -35 -61 -37 -52 -4 -88 12 -112 51 -15 26 -20 55 -22 157
-2 71 1 143 7 166 16 58 52 89 107 89 59 0 82 -25 97 -103 9 -48 15 -61 27
-57 59 18 431 125 436 125 13 0 -7 82 -30 129 -48 94 -134 160 -272 207 -70
24 -96 28 -234 30 -109 3 -174 -1 -220 -11z"/>
<path d="M8947 2066 c-82 -30 -148 -104 -190 -213 -21 -56 -22 -57 -28 -28 -4
17 -7 76 -8 133 l-1 102 -225 0 -225 0 0 -550 0 -550 250 0 249 0 3 303 c3
294 4 303 25 333 45 63 160 95 267 75 33 -6 60 -10 62 -8 9 10 40 394 32 402
-15 16 -168 17 -211 1z"/>
<path d="M12002 2065 c-147 -32 -305 -143 -362 -255 -65 -127 -87 -297 -56
-440 47 -223 212 -374 450 -415 242 -41 455 10 599 145 116 108 177 279 163
455 -20 267 -164 439 -424 506 -90 23 -273 25 -370 4z m236 -340 c39 -32 52
-88 52 -217 0 -167 -29 -228 -109 -228 -31 0 -44 6 -65 30 -33 40 -41 82 -40
215 0 131 14 179 58 206 42 25 69 24 104 -6z"/>
<path d="M9250 1637 c0 -465 2 -488 61 -574 54 -77 124 -111 254 -120 178 -13
308 57 386 207 26 51 25 55 34 -92 l7 -98 224 0 224 0 0 550 0 550 -249 0
-250 0 -3 -332 c-3 -295 -5 -337 -21 -365 -9 -18 -26 -37 -36 -43 -31 -16 -77
-12 -102 9 l-24 19 -3 356 -3 356 -249 0 -250 0 0 -423z"/>
<path d="M325 1630 c-49 -4 -143 -8 -207 -9 l-118 -1 0 -810 0 -810 861 0 861
0 -8 162 c-13 229 -10 504 4 555 24 82 87 126 156 109 14 -3 60 -30 103 -59
43 -30 90 -57 104 -60 63 -16 156 42 190 118 32 69 21 142 -30 207 -52 65
-187 77 -256 22 -66 -52 -89 -64 -129 -64 -31 0 -45 7 -76 38 -21 21 -43 55
-49 77 -6 24 -11 135 -11 278 l0 237 -300 0 c-244 0 -307 -3 -336 -15 l-36
-15 21 -27 c82 -107 103 -174 83 -270 -23 -112 -97 -193 -206 -227 -187 -59
-386 84 -386 276 0 60 16 100 74 182 52 71 56 91 24 100 -39 11 -239 15 -333
6z"/>
</g>
</svg>
